<svg xmlns="http://www.w3.org/2000/svg" width="1741.249" height="1137.878" viewBox="0 0 460.705 301.063"><path d="M-30.079 165.089v8.312l-7.198 4.156-7.198-4.156v-8.312l7.198-4.156z" style="opacity:1;fill:#e4ecf3;fill-opacity:1;stroke:#e4ecf3;stroke-width:1.3458358;stroke-linecap:round;stroke-linejoin:round;stroke-miterlimit:4;stroke-dasharray:none;stroke-dashoffset:0;stroke-opacity:1;paint-order:fill markers stroke" transform="matrix(4.14051 0 0 4.1135 463.179 -511.179)"/><path d="M-30.079 165.089v8.312l-7.198 4.156-7.198-4.156v-8.312l7.198-4.156z" style="opacity:1;fill:#e4ecf3;fill-opacity:1;stroke:#e4ecf3;stroke-width:1.3458358;stroke-linecap:round;stroke-linejoin:round;stroke-miterlimit:4;stroke-dasharray:none;stroke-dashoffset:0;stroke-opacity:1;paint-order:fill markers stroke" transform="matrix(4.14051 0 0 4.1135 538.952 -511.179)"/><path d="M-30.079 165.089v8.312l-7.198 4.156-7.198-4.156v-8.312l7.198-4.156z" style="opacity:1;fill:#e4ecf3;fill-opacity:1;stroke:#e4ecf3;stroke-width:1.3458358;stroke-linecap:round;stroke-linejoin:round;stroke-miterlimit:4;stroke-dasharray:none;stroke-dashoffset:0;stroke-opacity:1;paint-order:fill markers stroke" transform="matrix(4.14051 0 0 4.1135 501.387 -445.049)"/><path d="M-30.079 165.089v8.312l-7.198 4.156-7.198-4.156v-8.312l7.198-4.156z" style="opacity:1;fill:#e4ecf3;fill-opacity:1;stroke:#e4ecf3;stroke-width:1.3458358;stroke-linecap:round;stroke-linejoin:round;stroke-miterlimit:4;stroke-dasharray:none;stroke-dashoffset:0;stroke-opacity:1;paint-order:fill markers stroke" transform="matrix(4.14051 0 0 4.1135 425.796 -445.049)"/><path d="M-30.079 165.089v8.312l-7.198 4.156-7.198-4.156v-8.312l7.198-4.156z" style="opacity:1;fill:#e4ecf3;fill-opacity:1;stroke:#e4ecf3;stroke-width:1.3458358;stroke-linecap:round;stroke-linejoin:round;stroke-miterlimit:4;stroke-dasharray:none;stroke-dashoffset:0;stroke-opacity:1;paint-order:fill markers stroke" transform="matrix(4.14051 0 0 -4.1135 284.793 818.736)"/><path d="M-30.079 165.089v8.312l-7.198 4.156-7.198-4.156v-8.312l7.198-4.156z" style="opacity:1;fill:#e4ecf3;fill-opacity:1;stroke:#e4ecf3;stroke-width:1.3458358;stroke-linecap:round;stroke-linejoin:round;stroke-miterlimit:4;stroke-dasharray:none;stroke-dashoffset:0;stroke-opacity:1;paint-order:fill markers stroke" transform="matrix(4.14051 0 0 -4.1135 323.002 752.606)"/><path d="M-30.079 165.089v8.312l-7.198 4.156-7.198-4.156v-8.312l7.198-4.156z" style="opacity:1;fill:#e4ecf3;fill-opacity:1;stroke:#e4ecf3;stroke-width:1.3458358;stroke-linecap:round;stroke-linejoin:round;stroke-miterlimit:4;stroke-dasharray:none;stroke-dashoffset:0;stroke-opacity:1;paint-order:fill markers stroke" transform="matrix(4.14051 0 0 -4.1135 247.41 752.606)"/></svg>