<svg xmlns="http://www.w3.org/2000/svg" width="1741.249" height="1137.878" viewBox="0 0 460.705 301.063"><g transform="translate(117.542 71.132)"><path d="M159.956 53.52h72.478s-3.721 36.363-35.521 36.363-37.96-32.619-36.957-36.363z" style="fill:#bed2e0;fill-opacity:1;stroke:none;stroke-width:3.5;stroke-linecap:butt;stroke-linejoin:miter;stroke-opacity:1;stroke-miterlimit:4;stroke-dasharray:none"/><path d="M196.186 53.349V89.7c.217.003.43.01.649.01 31.8 0 35.52-36.362 35.52-36.362z" style="opacity:1;fill:#b4ccdd;fill-opacity:1;stroke:none;stroke-width:3.5;stroke-linecap:round;stroke-linejoin:round;stroke-miterlimit:4;stroke-dasharray:none;stroke-dashoffset:0;stroke-opacity:1;paint-order:stroke fill markers"/><path d="M-3.027 53.52H69.45s-3.72 36.363-35.52 36.363c-31.8 0-37.96-32.619-36.957-36.363z" style="fill:#bed2e0;stroke:none;stroke-width:3.5;stroke-linecap:butt;stroke-linejoin:miter;stroke-opacity:1;fill-opacity:1;stroke-miterlimit:4;stroke-dasharray:none"/><circle cx="114.539" cy="21.5" r="10.193" style="opacity:1;fill:#15476b;fill-opacity:1;stroke:none;stroke-width:3.5;stroke-linecap:round;stroke-linejoin:round;stroke-miterlimit:4;stroke-dasharray:none;stroke-dashoffset:0;stroke-opacity:1;paint-order:stroke fill markers" transform="scale(1 -1)"/><path d="M-30.079 165.089v8.312l-7.198 4.156-7.198-4.156v-8.312l7.198-4.156z" style="opacity:1;fill:#eef3f6;fill-opacity:1;stroke:#eef3f6;stroke-width:1.3458358;stroke-linecap:round;stroke-linejoin:round;stroke-miterlimit:4;stroke-dasharray:none;stroke-dashoffset:0;stroke-opacity:1;paint-order:fill markers stroke" transform="matrix(1.49094 0 0 1.48121 308.588 -82.734)"/><path d="M-30.079 165.089v8.312l-7.198 4.156-7.198-4.156v-8.312l7.198-4.156z" style="opacity:1;fill:#eef3f6;fill-opacity:1;stroke:#eef3f6;stroke-width:1.3458358;stroke-linecap:round;stroke-linejoin:round;stroke-miterlimit:4;stroke-dasharray:none;stroke-dashoffset:0;stroke-opacity:1;paint-order:fill markers stroke" transform="matrix(1.49094 0 0 1.48121 335.873 -82.734)"/><path d="M-30.079 165.089v8.312l-7.198 4.156-7.198-4.156v-8.312l7.198-4.156z" style="opacity:1;fill:#eef3f6;fill-opacity:1;stroke:#eef3f6;stroke-width:1.3458358;stroke-linecap:round;stroke-linejoin:round;stroke-miterlimit:4;stroke-dasharray:none;stroke-dashoffset:0;stroke-opacity:1;paint-order:fill markers stroke" transform="matrix(1.49094 0 0 1.48121 322.346 -58.922)"/><path d="M-30.079 165.089v8.312l-7.198 4.156-7.198-4.156v-8.312l7.198-4.156z" style="opacity:1;fill:#eef3f6;fill-opacity:1;stroke:#eef3f6;stroke-width:1.3458358;stroke-linecap:round;stroke-linejoin:round;stroke-miterlimit:4;stroke-dasharray:none;stroke-dashoffset:0;stroke-opacity:1;paint-order:fill markers stroke" transform="matrix(1.49094 0 0 1.48121 8.676 -58.031)"/><path d="M-30.079 165.089v8.312l-7.198 4.156-7.198-4.156v-8.312l7.198-4.156z" style="opacity:1;fill:#eef3f6;fill-opacity:1;stroke:#eef3f6;stroke-width:1.3458358;stroke-linecap:round;stroke-linejoin:round;stroke-miterlimit:4;stroke-dasharray:none;stroke-dashoffset:0;stroke-opacity:1;paint-order:fill markers stroke" transform="matrix(1.49094 0 0 1.48121 295.127 -58.922)"/><path d="M-30.079 165.089v8.312l-7.198 4.156-7.198-4.156v-8.312l7.198-4.156z" style="opacity:1;fill:#eef3f6;fill-opacity:1;stroke:#eef3f6;stroke-width:1.3458358;stroke-linecap:round;stroke-linejoin:round;stroke-miterlimit:4;stroke-dasharray:none;stroke-dashoffset:0;stroke-opacity:1;paint-order:fill markers stroke" transform="matrix(1.49094 0 0 1.48121 331.143 -294.398)"/><rect width="73.612" height="15.964" x="77.483" y="132.636" ry="7.982" style="opacity:1;fill:#15476b;fill-opacity:1;stroke:#000;stroke-width:3.5;stroke-linecap:round;stroke-linejoin:round;stroke-miterlimit:4;stroke-dasharray:none;stroke-dashoffset:0;stroke-opacity:1;paint-order:normal"/><path d="M33.202 53.349V89.7c.217.003.43.01.65.01 31.8 0 35.52-36.362 35.52-36.362z" style="opacity:1;fill:#b4ccdd;fill-opacity:1;stroke:none;stroke-width:3.5;stroke-linecap:round;stroke-linejoin:round;stroke-miterlimit:4;stroke-dasharray:none;stroke-dashoffset:0;stroke-opacity:1;paint-order:stroke fill markers"/><path d="M-3.027 53.52a36.25 36.25 0 0 0 36.24 35.982A36.25 36.25 0 0 0 69.45 53.52Z" style="opacity:1;fill:none;fill-opacity:1;stroke:#000;stroke-width:3.5;stroke-linecap:round;stroke-linejoin:round;stroke-miterlimit:4;stroke-dasharray:none;stroke-dashoffset:0;stroke-opacity:1;paint-order:stroke fill markers"/><path d="m-3.027 53.52 36.23-74.593L69.45 53.52" style="fill:none;stroke:#000;stroke-width:3.5;stroke-linecap:butt;stroke-linejoin:round;stroke-miterlimit:4;stroke-dasharray:none;stroke-opacity:1"/><path d="M33.203-21.073h70.585" style="fill:none;stroke:#000;stroke-width:3.5;stroke-linecap:butt;stroke-linejoin:miter;stroke-miterlimit:4;stroke-dasharray:none;stroke-opacity:1"/><circle cx="114.723" cy="-21.316" r="10.193" style="opacity:1;fill:none;fill-opacity:1;stroke:#000;stroke-width:3.5;stroke-linecap:round;stroke-linejoin:round;stroke-miterlimit:4;stroke-dasharray:none;stroke-dashoffset:0;stroke-opacity:1;paint-order:stroke fill markers"/><path d="M232.47 53.52a36.25 36.25 0 0 1-36.241 35.982 36.25 36.25 0 0 1-36.237-35.982Z" style="opacity:1;fill:none;fill-opacity:1;stroke:#000;stroke-width:3.5;stroke-linecap:round;stroke-linejoin:round;stroke-miterlimit:4;stroke-dasharray:none;stroke-dashoffset:0;stroke-opacity:1;paint-order:stroke fill markers"/><path d="m232.47 53.52-36.23-74.593-36.248 74.593" style="fill:none;stroke:#000;stroke-width:3.5;stroke-linecap:butt;stroke-linejoin:round;stroke-miterlimit:4;stroke-dasharray:none;stroke-opacity:1"/><path d="M196.24-21.073h-70.586" style="fill:none;stroke:#000;stroke-width:3.5;stroke-linecap:butt;stroke-linejoin:miter;stroke-miterlimit:4;stroke-dasharray:none;stroke-opacity:1"/><path d="M114.292-11.253v142.42" style="fill:none;stroke:#000;stroke-width:3.5;stroke-linecap:round;stroke-linejoin:miter;stroke-miterlimit:4;stroke-dasharray:none;stroke-opacity:1"/><rect width="131.483" height="15.651" x="48.382" y="148.697" ry="7.826" style="opacity:1;fill:#15476b;fill-opacity:1;stroke:#000;stroke-width:3.5;stroke-linecap:round;stroke-linejoin:round;stroke-miterlimit:4;stroke-dasharray:none;stroke-dashoffset:0;stroke-opacity:1;paint-order:normal"/><path d="M33.202-21.073v74.422M196.115-21.073v74.422" style="fill:none;stroke:#000;stroke-width:3.5;stroke-linecap:butt;stroke-linejoin:miter;stroke-miterlimit:4;stroke-dasharray:none;stroke-opacity:1"/><path d="M-30.079 165.089v8.312l-7.198 4.156-7.198-4.156v-8.312l7.198-4.156z" style="opacity:1;fill:#eef3f6;fill-opacity:1;stroke:#eef3f6;stroke-width:1.3458358;stroke-linecap:round;stroke-linejoin:round;stroke-miterlimit:4;stroke-dasharray:none;stroke-dashoffset:0;stroke-opacity:1;paint-order:fill markers stroke" transform="matrix(1.49094 0 0 1.48121 353.03 -245.995)"/><path d="M-30.079 165.089v8.312l-7.198 4.156-7.198-4.156v-8.312l7.198-4.156z" style="opacity:1;fill:#eef3f6;fill-opacity:1;stroke:#eef3f6;stroke-width:1.3458358;stroke-linecap:round;stroke-linejoin:round;stroke-miterlimit:4;stroke-dasharray:none;stroke-dashoffset:0;stroke-opacity:1;paint-order:fill markers stroke" transform="matrix(1.49094 0 0 1.48121 -33.543 -158.85)"/><path d="M-30.079 165.089v8.312l-7.198 4.156-7.198-4.156v-8.312l7.198-4.156z" style="opacity:1;fill:#eef3f6;fill-opacity:1;stroke:#eef3f6;stroke-width:1.3458358;stroke-linecap:round;stroke-linejoin:round;stroke-miterlimit:4;stroke-dasharray:none;stroke-dashoffset:0;stroke-opacity:1;paint-order:fill markers stroke" transform="matrix(1.49094 0 0 -1.48121 3.882 278.72)"/><path d="M-30.079 165.089v8.312l-7.198 4.156-7.198-4.156v-8.312l7.198-4.156z" style="opacity:1;fill:#eef3f6;fill-opacity:1;stroke:#eef3f6;stroke-width:1.3458358;stroke-linecap:round;stroke-linejoin:round;stroke-miterlimit:4;stroke-dasharray:none;stroke-dashoffset:0;stroke-opacity:1;paint-order:fill markers stroke" transform="matrix(1.49094 0 0 -1.48121 17.64 254.907)"/><path d="M-30.079 165.089v8.312l-7.198 4.156-7.198-4.156v-8.312l7.198-4.156z" style="opacity:1;fill:#eef3f6;fill-opacity:1;stroke:#eef3f6;stroke-width:1.3458358;stroke-linecap:round;stroke-linejoin:round;stroke-miterlimit:4;stroke-dasharray:none;stroke-dashoffset:0;stroke-opacity:1;paint-order:fill markers stroke" transform="matrix(1.49094 0 0 -1.48121 -9.58 254.907)"/></g></svg>