<svg xmlns="http://www.w3.org/2000/svg" width="1741.249" height="1137.878" viewBox="0 0 460.705 301.063"><g transform="translate(117.542 71.132)"><path d="M-30.079 165.089v8.312l-7.198 4.156-7.198-4.156v-8.312l7.198-4.156z" style="opacity:1;fill:#eef3f6;fill-opacity:1;stroke:#eef3f6;stroke-width:1.3458358;stroke-linecap:round;stroke-linejoin:round;stroke-miterlimit:4;stroke-dasharray:none;stroke-dashoffset:0;stroke-opacity:1;paint-order:fill markers stroke" transform="matrix(1.49094 0 0 1.48121 44.264 -87.874)"/><path d="M-30.079 165.089v8.312l-7.198 4.156-7.198-4.156v-8.312l7.198-4.156z" style="opacity:1;fill:#eef3f6;fill-opacity:1;stroke:#eef3f6;stroke-width:1.3458358;stroke-linecap:round;stroke-linejoin:round;stroke-miterlimit:4;stroke-dasharray:none;stroke-dashoffset:0;stroke-opacity:1;paint-order:fill markers stroke" transform="matrix(1.49094 0 0 1.48121 71.55 -87.874)"/><path d="M-30.079 165.089v8.312l-7.198 4.156-7.198-4.156v-8.312l7.198-4.156z" style="opacity:1;fill:#eef3f6;fill-opacity:1;stroke:#eef3f6;stroke-width:1.3458358;stroke-linecap:round;stroke-linejoin:round;stroke-miterlimit:4;stroke-dasharray:none;stroke-dashoffset:0;stroke-opacity:1;paint-order:fill markers stroke" transform="matrix(1.49094 0 0 1.48121 58.023 -64.061)"/><path d="M-30.079 165.089v8.312l-7.198 4.156-7.198-4.156v-8.312l7.198-4.156z" style="opacity:1;fill:#eef3f6;fill-opacity:1;stroke:#eef3f6;stroke-width:1.3458358;stroke-linecap:round;stroke-linejoin:round;stroke-miterlimit:4;stroke-dasharray:none;stroke-dashoffset:0;stroke-opacity:1;paint-order:fill markers stroke" transform="matrix(1.49094 0 0 1.48121 11.245 -122.505)"/><path d="M-30.079 165.089v8.312l-7.198 4.156-7.198-4.156v-8.312l7.198-4.156z" style="opacity:1;fill:#eef3f6;fill-opacity:1;stroke:#eef3f6;stroke-width:1.3458358;stroke-linecap:round;stroke-linejoin:round;stroke-miterlimit:4;stroke-dasharray:none;stroke-dashoffset:0;stroke-opacity:1;paint-order:fill markers stroke" transform="matrix(1.49094 0 0 1.48121 -30.228 -84.828)"/><path d="M-30.079 165.089v8.312l-7.198 4.156-7.198-4.156v-8.312l7.198-4.156z" style="opacity:1;fill:#eef3f6;fill-opacity:1;stroke:#eef3f6;stroke-width:1.3458358;stroke-linecap:round;stroke-linejoin:round;stroke-miterlimit:4;stroke-dasharray:none;stroke-dashoffset:0;stroke-opacity:1;paint-order:fill markers stroke" transform="matrix(1.49094 0 0 1.48121 30.803 -64.061)"/><path d="M-30.079 165.089v8.312l-7.198 4.156-7.198-4.156v-8.312l7.198-4.156z" style="opacity:1;fill:#eef3f6;fill-opacity:1;stroke:#eef3f6;stroke-width:1.3458358;stroke-linecap:round;stroke-linejoin:round;stroke-miterlimit:4;stroke-dasharray:none;stroke-dashoffset:0;stroke-opacity:1;paint-order:fill markers stroke" transform="matrix(1.49094 0 0 1.48121 270.835 -97.585)"/><path d="M-30.079 165.089v8.312l-7.198 4.156-7.198-4.156v-8.312l7.198-4.156z" style="opacity:1;fill:#eef3f6;fill-opacity:1;stroke:#eef3f6;stroke-width:1.3458358;stroke-linecap:round;stroke-linejoin:round;stroke-miterlimit:4;stroke-dasharray:none;stroke-dashoffset:0;stroke-opacity:1;paint-order:fill markers stroke" transform="matrix(1.49094 0 0 1.48121 353.904 -145.35)"/><rect width="205.73" height="170.271" x="10.566" y="-22.523" ry="19.402" style="opacity:1;fill:#fff;fill-opacity:1;stroke:#000;stroke-width:2.50324678;stroke-linecap:round;stroke-linejoin:round;stroke-miterlimit:4;stroke-dasharray:none;stroke-dashoffset:0;stroke-opacity:1;paint-order:normal"/><path d="M9.574 120.52h206.441" style="fill:none;stroke:#000;stroke-width:2.50324678;stroke-linecap:butt;stroke-linejoin:miter;stroke-miterlimit:4;stroke-dasharray:none;stroke-opacity:1"/><circle cx="112.936" cy="133.692" r="5.352" style="opacity:1;fill:#bed2e0;fill-opacity:1;stroke:#000;stroke-width:2.50324678;stroke-linecap:round;stroke-linejoin:round;stroke-miterlimit:4;stroke-dasharray:none;stroke-dashoffset:0;stroke-opacity:1;paint-order:normal"/><rect width="190.046" height="127.018" x="17.952" y="-14.467" ry="14.474" style="opacity:1;fill:#eef3f6;fill-opacity:1;stroke:none;stroke-width:2.50324655;stroke-linecap:round;stroke-linejoin:round;stroke-miterlimit:4;stroke-dasharray:none;stroke-dashoffset:0;stroke-opacity:1;paint-order:normal"/><path d="M151.71-14.043 78.378 112.976h114.756a14.442 14.442 0 0 0 14.473-14.474V.43a14.442 14.442 0 0 0-14.473-14.474z" style="opacity:1;fill:#e5eef3;fill-opacity:1;stroke:none;stroke-width:2.50324655;stroke-linecap:round;stroke-linejoin:round;stroke-miterlimit:4;stroke-dasharray:none;stroke-dashoffset:0;stroke-opacity:1;paint-order:normal"/><path d="M54.388 182.873H171.47" style="fill:none;stroke:#000;stroke-width:2.50324678;stroke-linecap:round;stroke-linejoin:miter;stroke-miterlimit:4;stroke-dasharray:none;stroke-opacity:1"/><path d="m85.142 183.608 9.745-36.369m45.7 36.369-9.745-36.369" style="fill:none;stroke:#000;stroke-width:2.50324678;stroke-linecap:butt;stroke-linejoin:miter;stroke-miterlimit:4;stroke-dasharray:none;stroke-opacity:1"/><rect width="190.046" height="127.018" x="17.952" y="-14.467" ry="14.474" style="opacity:1;fill:none;fill-opacity:1;stroke:#000;stroke-width:2.50324655;stroke-linecap:round;stroke-linejoin:round;stroke-miterlimit:4;stroke-dasharray:none;stroke-dashoffset:0;stroke-opacity:1;paint-order:normal"/><path d="M-30.079 165.089v8.312l-7.198 4.156-7.198-4.156v-8.312l7.198-4.156z" style="opacity:1;fill:#1f567d;fill-opacity:1;stroke:#1f567d;stroke-width:1.3458358;stroke-linecap:round;stroke-linejoin:round;stroke-miterlimit:4;stroke-dasharray:none;stroke-dashoffset:0;stroke-opacity:1;paint-order:fill markers stroke" transform="matrix(1.49094 0 0 1.48121 140.492 -226.575)"/><path d="M-30.079 165.089v8.312l-7.198 4.156-7.198-4.156v-8.312l7.198-4.156z" style="opacity:1;fill:#1f567d;fill-opacity:1;stroke:#1f567d;stroke-width:1.3458358;stroke-linecap:round;stroke-linejoin:round;stroke-miterlimit:4;stroke-dasharray:none;stroke-dashoffset:0;stroke-opacity:1;paint-order:fill markers stroke" transform="matrix(1.49094 0 0 1.48121 167.777 -226.575)"/><path d="M-30.079 165.089v8.312l-7.198 4.156-7.198-4.156v-8.312l7.198-4.156z" style="opacity:1;fill:#1f567d;fill-opacity:1;stroke:#1f567d;stroke-width:1.3458358;stroke-linecap:round;stroke-linejoin:round;stroke-miterlimit:4;stroke-dasharray:none;stroke-dashoffset:0;stroke-opacity:1;paint-order:fill markers stroke" transform="matrix(1.49094 0 0 1.48121 154.25 -202.762)"/><path d="M-30.079 165.089v8.312l-7.198 4.156-7.198-4.156v-8.312l7.198-4.156z" style="opacity:1;fill:#eef3f6;fill-opacity:1;stroke:#eef3f6;stroke-width:1.3458358;stroke-linecap:round;stroke-linejoin:round;stroke-miterlimit:4;stroke-dasharray:none;stroke-dashoffset:0;stroke-opacity:1;paint-order:fill markers stroke" transform="matrix(1.49094 0 0 1.48121 16.437 19.75)"/><path d="M-30.079 165.089v8.312l-7.198 4.156-7.198-4.156v-8.312l7.198-4.156z" style="opacity:1;fill:#eef3f6;fill-opacity:1;stroke:#eef3f6;stroke-width:1.3458358;stroke-linecap:round;stroke-linejoin:round;stroke-miterlimit:4;stroke-dasharray:none;stroke-dashoffset:0;stroke-opacity:1;paint-order:fill markers stroke" transform="matrix(1.49094 0 0 1.48121 -25.036 57.427)"/><path d="M-30.079 165.089v8.312l-7.198 4.156-7.198-4.156v-8.312l7.198-4.156z" style="opacity:1;fill:#1f567d;fill-opacity:1;stroke:#1f567d;stroke-width:1.3458358;stroke-linecap:round;stroke-linejoin:round;stroke-miterlimit:4;stroke-dasharray:none;stroke-dashoffset:0;stroke-opacity:1;paint-order:fill markers stroke" transform="matrix(1.49094 0 0 1.48121 127.031 -202.762)"/><path d="M-30.079 165.089v8.312l-7.198 4.156-7.198-4.156v-8.312l7.198-4.156z" style="opacity:1;fill:#eef3f6;fill-opacity:1;stroke:#eef3f6;stroke-width:1.3458358;stroke-linecap:round;stroke-linejoin:round;stroke-miterlimit:4;stroke-dasharray:none;stroke-dashoffset:0;stroke-opacity:1;paint-order:fill markers stroke" transform="matrix(1.49094 0 0 1.48121 276.027 44.67)"/><path d="M-30.079 165.089v8.312l-7.198 4.156-7.198-4.156v-8.312l7.198-4.156z" style="opacity:1;fill:#eef3f6;fill-opacity:1;stroke:#eef3f6;stroke-width:1.3458358;stroke-linecap:round;stroke-linejoin:round;stroke-miterlimit:4;stroke-dasharray:none;stroke-dashoffset:0;stroke-opacity:1;paint-order:fill markers stroke" transform="matrix(1.49094 0 0 1.48121 359.096 -3.094)"/><path d="M-30.079 165.089v8.312l-7.198 4.156-7.198-4.156v-8.312l7.198-4.156z" style="opacity:1;fill:#1f567d;fill-opacity:1;stroke:#1f567d;stroke-width:1.3458358;stroke-linecap:round;stroke-linejoin:round;stroke-miterlimit:4;stroke-dasharray:none;stroke-dashoffset:0;stroke-opacity:1;paint-order:fill markers stroke" transform="matrix(1.49094 0 0 1.48121 181.055 -202.687)"/><path d="M-30.079 165.089v8.312l-7.198 4.156-7.198-4.156v-8.312l7.198-4.156z" style="opacity:1;fill:#1f567d;fill-opacity:1;stroke:#1f567d;stroke-width:1.3458358;stroke-linecap:round;stroke-linejoin:round;stroke-miterlimit:4;stroke-dasharray:none;stroke-dashoffset:0;stroke-opacity:1;paint-order:fill markers stroke" transform="matrix(1.49094 0 0 1.48121 208.34 -202.687)"/><path d="M-30.079 165.089v8.312l-7.198 4.156-7.198-4.156v-8.312l7.198-4.156z" style="opacity:1;fill:#1f567d;fill-opacity:1;stroke:#1f567d;stroke-width:1.3458358;stroke-linecap:round;stroke-linejoin:round;stroke-miterlimit:4;stroke-dasharray:none;stroke-dashoffset:0;stroke-opacity:1;paint-order:fill markers stroke" transform="matrix(1.49094 0 0 1.48121 194.813 -178.875)"/><path d="M-30.079 165.089v8.312l-7.198 4.156-7.198-4.156v-8.312l7.198-4.156z" style="opacity:1;fill:#1f567d;fill-opacity:1;stroke:#1f567d;stroke-width:1.3458358;stroke-linecap:round;stroke-linejoin:round;stroke-miterlimit:4;stroke-dasharray:none;stroke-dashoffset:0;stroke-opacity:1;paint-order:fill markers stroke" transform="matrix(1.49094 0 0 1.48121 167.594 -178.875)"/></g></svg>