<svg xmlns="http://www.w3.org/2000/svg" xml:space="preserve" width="96.915" height="111.598" style="fill:#000"><g style="opacity:.18500001"><path d="m101.769 78.54-47.457 27.4-47.457-27.4V23.742l47.457-27.4 47.457 27.4Z" style="display:inline;opacity:1;fill:#bed2e0;fill-opacity:1;stroke:none;stroke-width:5.9457283;stroke-linecap:round;stroke-linejoin:round;stroke-miterlimit:4;stroke-dasharray:none;stroke-dashoffset:0;stroke-opacity:1;paint-order:normal" transform="translate(-5.854 4.658)"/><path d="M101.769 23.742 6.854 78.54l47.458 27.399 47.457-27.4Z" style="fill:#b4ccdd;fill-opacity:1;stroke:none;stroke-width:.52438021px;stroke-linecap:butt;stroke-linejoin:miter;stroke-opacity:1" transform="translate(-5.854 4.658)"/></g><path d="m53.032 58.727-3.687 2.13-3.688-2.13v-4.258l3.688-2.13 3.687 2.13z" style="display:inline;opacity:1;fill:#1f567d;fill-opacity:1;stroke:none;stroke-width:.46203953;stroke-linecap:round;stroke-linejoin:round;stroke-miterlimit:4;stroke-dasharray:none;stroke-dashoffset:0;stroke-opacity:1;paint-order:normal" transform="translate(11.917 16.935) scale(.7399)"/><path d="m53.032 54.469-7.375 4.258 3.687 2.13 3.688-2.13z" style="fill:#144568;fill-opacity:1;stroke:none;stroke-width:.04074932px;stroke-linecap:butt;stroke-linejoin:miter;stroke-opacity:1" transform="translate(11.917 16.935) scale(.7399)"/><path d="m53.032 49.314-3.687 2.13-3.688-2.13v-4.258l3.688-2.13 3.687 2.13z" style="display:inline;opacity:1;fill:#bed2e0;fill-opacity:1;stroke:none;stroke-width:.46203953;stroke-linecap:round;stroke-linejoin:round;stroke-miterlimit:4;stroke-dasharray:none;stroke-dashoffset:0;stroke-opacity:1;paint-order:normal" transform="translate(11.917 16.935) scale(.7399)"/><path d="m53.032 45.056-7.375 4.258 3.687 2.13 3.688-2.13z" style="fill:#b4ccdd;fill-opacity:1;stroke:none;stroke-width:.04074932px;stroke-linecap:butt;stroke-linejoin:miter;stroke-opacity:1" transform="translate(11.917 16.935) scale(.7399)"/><path d="m44.068 53.919-3.688 2.129-3.688-2.13V49.66l3.688-2.129 3.688 2.13z" style="display:inline;opacity:1;fill:#bed2e0;fill-opacity:1;stroke:none;stroke-width:.46203953;stroke-linecap:round;stroke-linejoin:round;stroke-miterlimit:4;stroke-dasharray:none;stroke-dashoffset:0;stroke-opacity:1;paint-order:normal" transform="translate(11.917 16.935) scale(.7399)"/><path d="m44.068 49.66-7.376 4.259 3.688 2.129 3.688-2.13z" style="fill:#b4ccdd;fill-opacity:1;stroke:none;stroke-width:.04074932px;stroke-linecap:butt;stroke-linejoin:miter;stroke-opacity:1" transform="translate(11.917 16.935) scale(.7399)"/><path d="m62.079 53.919-3.688 2.129-3.688-2.13V49.66l3.688-2.129 3.688 2.13z" style="display:inline;opacity:1;fill:#bed2e0;fill-opacity:1;stroke:none;stroke-width:.46203953;stroke-linecap:round;stroke-linejoin:round;stroke-miterlimit:4;stroke-dasharray:none;stroke-dashoffset:0;stroke-opacity:1;paint-order:normal" transform="translate(11.917 16.935) scale(.7399)"/><path d="m62.079 49.66-7.376 4.259 3.688 2.129 3.688-2.13z" style="fill:#b4ccdd;fill-opacity:1;stroke:none;stroke-width:.04074932px;stroke-linecap:butt;stroke-linejoin:miter;stroke-opacity:1" transform="translate(11.917 16.935) scale(.7399)"/><path d="M44.068 63.332 40.38 65.46l-3.688-2.13v-4.258l3.688-2.129 3.688 2.13z" style="display:inline;opacity:1;fill:#bed2e0;fill-opacity:1;stroke:none;stroke-width:.46203953;stroke-linecap:round;stroke-linejoin:round;stroke-miterlimit:4;stroke-dasharray:none;stroke-dashoffset:0;stroke-opacity:1;paint-order:normal" transform="translate(11.917 16.935) scale(.7399)"/><path d="m44.068 59.073-7.376 4.259 3.688 2.129 3.688-2.13z" style="fill:#b4ccdd;fill-opacity:1;stroke:none;stroke-width:.04074932px;stroke-linecap:butt;stroke-linejoin:miter;stroke-opacity:1" transform="translate(11.917 16.935) scale(.7399)"/><path d="m53.032 68.14-3.687 2.13-3.688-2.13v-4.258l3.688-2.13 3.687 2.13z" style="display:inline;opacity:1;fill:#bed2e0;fill-opacity:1;stroke:none;stroke-width:.46203953;stroke-linecap:round;stroke-linejoin:round;stroke-miterlimit:4;stroke-dasharray:none;stroke-dashoffset:0;stroke-opacity:1;paint-order:normal" transform="translate(11.917 16.935) scale(.7399)"/><path d="m53.032 63.882-7.375 4.258 3.687 2.13 3.688-2.13z" style="fill:#b4ccdd;fill-opacity:1;stroke:none;stroke-width:.04074932px;stroke-linecap:butt;stroke-linejoin:miter;stroke-opacity:1" transform="translate(11.917 16.935) scale(.7399)"/><path d="m61.997 63.32-3.688 2.13-3.688-2.13v-4.258l3.688-2.129 3.688 2.13z" style="display:inline;opacity:1;fill:#bed2e0;fill-opacity:1;stroke:none;stroke-width:.46203953;stroke-linecap:round;stroke-linejoin:round;stroke-miterlimit:4;stroke-dasharray:none;stroke-dashoffset:0;stroke-opacity:1;paint-order:normal" transform="translate(11.917 16.935) scale(.7399)"/><path d="m61.997 59.062-7.376 4.259 3.688 2.129 3.688-2.13z" style="fill:#b4ccdd;fill-opacity:1;stroke:none;stroke-width:.04074932px;stroke-linecap:butt;stroke-linejoin:miter;stroke-opacity:1" transform="translate(11.917 16.935) scale(.7399)"/><path d="M74.803 31.858H44.549c-1.669 0-2.456-1.159-3.15-2.181-.747-1.102-1.453-2.142-3.221-2.142h-12.98c-1.845 0-3.346 2.019-3.346 4.5v5c.798-1.004 1.993-1.659 3.346-1.659h49.605c1.353 0 2.548.655 3.346 1.659v-.677c-.001-2.482-1.502-4.5-3.346-4.5z" style="fill:none" transform="translate(6.487 13.298) scale(.8394)"/><path d="M74.803 30.858H44.549c-1.084 0-1.589-.662-2.322-1.743-.78-1.149-1.751-2.58-4.049-2.58h-12.98c-2.396 0-4.346 2.467-4.346 5.5v36.941c0 2.475 1.95 4.488 4.346 4.488h49.605c2.396 0 4.346-2.014 4.346-4.488V36.358c-.001-3.033-1.95-5.5-4.346-5.5zm3.345 9.812v28.306c0 1.923-1.501 3.488-3.346 3.488H25.197c-1.845 0-3.346-1.565-3.346-3.488V39.864c0-1.923 1.501-3.488 3.346-3.488h49.605c1.845 0 3.346 1.565 3.346 3.488zm0-3.635c-.798-1.004-1.993-1.659-3.346-1.659H25.197c-1.353 0-2.548.655-3.346 1.659v-5c0-2.481 1.501-4.5 3.346-4.5h12.98c1.768 0 2.474 1.04 3.221 2.142.694 1.022 1.48 2.181 3.15 2.181h30.254c1.845 0 3.346 2.019 3.346 4.5z" style="fill:#343434;fill-opacity:1" transform="translate(6.487 13.298) scale(.8394)"/></svg>