<svg xmlns="http://www.w3.org/2000/svg" xml:space="preserve" width="625.003" height="673.005" style="fill:#000"><path d="m3156.327 2038.39-90.502 52.251-90.501-52.25v-104.503l90.501-52.251 90.502 52.251z" style="display:inline;opacity:1;fill:#1f567d;fill-opacity:1;stroke:none;stroke-width:11.33858299;stroke-linecap:round;stroke-linejoin:round;stroke-miterlimit:4;stroke-dasharray:none;stroke-dashoffset:0;stroke-opacity:1;paint-order:normal" transform="translate(-2754.323 -1649.637)"/><path d="m3156.327 1933.888-181.003 104.502 90.501 52.251 90.502-52.25z" style="fill:#144568;fill-opacity:1;stroke:none;stroke-width:1px;stroke-linecap:butt;stroke-linejoin:miter;stroke-opacity:1" transform="translate(-2754.323 -1649.637)"/><path d="m3156.327 1807.39-90.502 52.251-90.501-52.25v-104.503l90.501-52.251 90.502 52.25z" style="display:inline;opacity:1;fill:#bed2e0;fill-opacity:1;stroke:none;stroke-width:11.33858299;stroke-linecap:round;stroke-linejoin:round;stroke-miterlimit:4;stroke-dasharray:none;stroke-dashoffset:0;stroke-opacity:1;paint-order:normal" transform="translate(-2754.323 -1649.637)"/><path d="m3156.327 1702.888-181.003 104.502 90.501 52.251 90.502-52.25z" style="fill:#b4ccdd;fill-opacity:1;stroke:none;stroke-width:1px;stroke-linecap:butt;stroke-linejoin:miter;stroke-opacity:1" transform="translate(-2754.323 -1649.637)"/><path d="m2936.327 1920.39-90.502 52.251-90.501-52.25v-104.503l90.501-52.251 90.502 52.251z" style="display:inline;opacity:1;fill:#bed2e0;fill-opacity:1;stroke:none;stroke-width:11.33858299;stroke-linecap:round;stroke-linejoin:round;stroke-miterlimit:4;stroke-dasharray:none;stroke-dashoffset:0;stroke-opacity:1;paint-order:normal" transform="translate(-2754.323 -1649.637)"/><path d="m2936.327 1815.888-181.004 104.502 90.502 52.251 90.502-52.25z" style="fill:#b4ccdd;fill-opacity:1;stroke:none;stroke-width:1px;stroke-linecap:butt;stroke-linejoin:miter;stroke-opacity:1" transform="translate(-2754.323 -1649.637)"/><path d="m3378.327 1920.39-90.502 52.251-90.501-52.25v-104.503l90.501-52.251 90.502 52.251z" style="display:inline;opacity:1;fill:#bed2e0;fill-opacity:1;stroke:none;stroke-width:11.33858299;stroke-linecap:round;stroke-linejoin:round;stroke-miterlimit:4;stroke-dasharray:none;stroke-dashoffset:0;stroke-opacity:1;paint-order:normal" transform="translate(-2754.323 -1649.637)"/><path d="m3378.327 1815.888-181.004 104.502 90.502 52.251 90.502-52.25z" style="fill:#b4ccdd;fill-opacity:1;stroke:none;stroke-width:1px;stroke-linecap:butt;stroke-linejoin:miter;stroke-opacity:1" transform="translate(-2754.323 -1649.637)"/><path d="m2936.327 2151.39-90.502 52.251-90.501-52.25v-104.503l90.501-52.251 90.502 52.251z" style="display:inline;opacity:1;fill:#bed2e0;fill-opacity:1;stroke:none;stroke-width:11.33858299;stroke-linecap:round;stroke-linejoin:round;stroke-miterlimit:4;stroke-dasharray:none;stroke-dashoffset:0;stroke-opacity:1;paint-order:normal" transform="translate(-2754.323 -1649.637)"/><path d="m2936.327 2046.888-181.004 104.502 90.502 52.251 90.502-52.25z" style="fill:#b4ccdd;fill-opacity:1;stroke:none;stroke-width:1px;stroke-linecap:butt;stroke-linejoin:miter;stroke-opacity:1" transform="translate(-2754.323 -1649.637)"/><path d="m3156.327 2269.39-90.502 52.251-90.501-52.25v-104.503l90.501-52.251 90.502 52.251z" style="display:inline;opacity:1;fill:#bed2e0;fill-opacity:1;stroke:none;stroke-width:11.33858299;stroke-linecap:round;stroke-linejoin:round;stroke-miterlimit:4;stroke-dasharray:none;stroke-dashoffset:0;stroke-opacity:1;paint-order:normal" transform="translate(-2754.323 -1649.637)"/><path d="m3156.327 2164.888-181.003 104.502 90.501 52.251 90.502-52.25z" style="fill:#b4ccdd;fill-opacity:1;stroke:none;stroke-width:1px;stroke-linecap:butt;stroke-linejoin:miter;stroke-opacity:1" transform="translate(-2754.323 -1649.637)"/><path d="m3376.327 2151.122-90.502 52.25-90.501-52.25v-104.503l90.501-52.25 90.502 52.25z" style="display:inline;opacity:1;fill:#bed2e0;fill-opacity:1;stroke:none;stroke-width:11.33858299;stroke-linecap:round;stroke-linejoin:round;stroke-miterlimit:4;stroke-dasharray:none;stroke-dashoffset:0;stroke-opacity:1;paint-order:normal" transform="translate(-2754.323 -1649.637)"/><path d="m3376.327 2046.62-181.004 104.502 90.502 52.25 90.502-52.25z" style="fill:#b4ccdd;fill-opacity:1;stroke:none;stroke-width:1px;stroke-linecap:butt;stroke-linejoin:miter;stroke-opacity:1" transform="translate(-2754.323 -1649.637)"/></svg>